<svg width="32" height="32" viewBox="0 0 32 32" fill="none" xmlns="http://www.w3.org/2000/svg">
<g clip-path="url(#clip0_2063_958)">
<g clip-path="url(#clip1_2063_958)">
<path d="M22.2504 21.2537L22.0863 21.5L21.0299 22.7312L20.8395 22.9626L20.7065 22.9963L20.1245 23.3657L19.2323 23.648L18.0775 23.6628H14.397C13.5171 23.6546 12.6364 23.6373 11.7557 23.6431C10.5951 23.6505 9.49437 23.4453 8.51023 22.7886C8.3592 22.6204 8.20325 22.4562 8.05879 22.2822C7.59586 21.7232 7.50147 21.0264 7.34634 20.3525C7.23307 19.5317 7.12006 18.7131 7.00734 17.8967C6.92362 17.3227 6.83964 16.7495 6.75537 16.1771L6.49927 14.1251C6.44263 13.3609 6.35728 12.6033 5.97889 11.9139C5.35262 10.0827 2.95014 8.40329 1.02864 8.47799C0.772968 8.49199 0.525887 8.57511 0.31373 8.71848C0.114095 8.86521 -0.0345945 9.07077 -0.111439 9.30631C-0.188283 9.54184 -0.189422 9.79553 -0.114725 10.0318C0.0494349 10.5801 0.448324 10.8361 0.994157 10.9182C1.31427 10.9667 1.6508 11.0003 1.94465 11.1201C2.63658 11.3926 3.13728 11.9139 3.57395 12.4999C3.94577 13.1869 4.04508 13.9412 4.11977 14.7021C4.21717 15.3845 4.31513 16.0671 4.41362 16.75L4.67134 18.4688C4.78078 19.26 4.89022 20.0513 4.99966 20.8425C5.0998 21.8915 5.40023 22.8633 6.09708 23.6817C6.68724 24.6141 7.56878 25.1542 8.57672 25.5252C8.86728 25.6302 9.15127 25.7599 9.45086 25.8371C11.0268 26.2417 12.6347 26.0694 14.2328 26.0833L14.3149 26.0883C15.9836 26.0883 17.6613 26.195 19.3218 26.0571C21.2597 25.897 22.7248 24.8086 23.8214 23.222L25.0173 20.9238L25.7561 18.0592L25.9883 15.6017C25.9982 15.2258 26.0499 14.8458 26.0048 14.4764C25.9744 14.2302 25.8078 14.0028 25.7019 13.7664C25.4236 13.6203 25.1478 13.356 24.8647 13.3486C23.48 13.3109 22.0937 13.3412 20.7073 13.3486L13.7552 13.3371L13.3382 13.333L13.1847 13.3429H12.3483C11.7499 13.3379 11.1508 13.31 10.5532 13.3338C9.5937 13.3724 9.08808 14.3582 9.58138 15.1946C9.7324 15.5549 10.0386 15.6871 10.394 15.747H10.797L11.0432 15.7577L13.582 15.7478H19.5582C20.7533 15.7536 21.9484 15.7659 23.1435 15.7618C23.3897 15.7618 23.5391 15.8151 23.5022 16.095C23.3834 16.9667 23.2647 17.8384 23.1459 18.7101C22.9331 19.3667 22.7207 20.0234 22.509 20.68L22.3867 20.9976L22.2504 21.2537ZM8.6588 29.5241L8.73677 29.1958C8.83762 28.9298 8.87886 28.645 8.85759 28.3613C8.83631 28.0777 8.75304 27.8022 8.61365 27.5542C8.30913 26.859 7.71077 26.5471 7.03197 26.3386C5.62019 25.9036 4.13372 27.0552 4.17804 28.5449C4.15752 29.2286 4.37996 29.8098 4.90117 30.2686C5.85084 31.1608 7.22486 31.1715 8.1064 30.285L8.6588 29.5241ZM19.8364 28.9496C20.0318 30.2161 21.1284 31.0566 22.4532 30.9014C23.8699 30.7373 24.9156 29.2598 24.341 27.7889C24.1826 27.2021 23.7607 26.804 23.274 26.5249C22.4532 26.0513 21.5807 26.0981 20.8058 26.6382C20.017 27.1898 19.6821 27.9818 19.8364 28.952V28.9496ZM17.0999 20.7169C17.8181 20.7276 18.5363 20.7481 19.2545 20.7448C19.7011 20.7558 20.1479 20.7317 20.5908 20.6726C21.1407 20.5831 21.4896 20.0981 21.4896 19.535C21.4986 18.8455 21.0348 18.3243 20.3659 18.3095C19.6969 18.2948 19.0091 18.3136 18.3303 18.3169C15.8515 18.312 13.3727 18.3079 10.8938 18.3046C10.2372 18.3046 9.79806 18.6928 9.6774 19.3429C9.57809 19.8805 9.91051 20.4026 10.4982 20.6357C10.7215 20.6861 10.9481 20.7209 11.1762 20.7399C11.7754 20.7547 12.3746 20.7473 12.9737 20.7399C14.3511 20.7355 15.7264 20.7279 17.0999 20.7169Z" fill="#FDFDFD"/>
<path d="M18.0846 0.792969C18.3694 0.875049 18.6501 1.00063 18.9391 1.02279C20.9525 1.17874 22.8379 1.76808 24.5205 2.85646C25.5276 3.50653 26.598 4.11885 27.3391 5.11776C27.1504 5.11038 26.9443 5.15142 26.7769 5.08822C25.4193 4.57522 24.0683 4.04498 22.7156 3.5172C20.7457 2.74675 18.7757 1.97246 16.8058 1.19434C16.6942 1.15002 16.6211 1.00802 16.5308 0.911164L16.521 0.792969H18.0846Z" fill="#E89648"/>
<path d="M31.5056 14.3008H31.5935V15.6141C31.5387 15.9145 31.4824 16.2154 31.4244 16.5169L30.9393 16.0245L30.8572 15.9424L30.7751 15.8603C30.6824 15.2743 30.803 15.1323 31.3883 15.1265L31.5056 14.3008Z" fill="#E89648"/>
<path d="M30.27 9.30733C30.5343 10.0411 30.7989 10.7749 31.0637 11.5087C30.8766 11.4857 30.6763 11.4997 30.5064 11.434C29.4829 11.04 28.4724 10.6132 27.4456 10.2274C26.766 9.973 26.065 9.77519 25.3739 9.55193L23.3219 8.3076C23.324 8.29399 23.324 8.28016 23.3219 8.26656C23.3991 8.05315 23.5394 7.83071 23.2398 7.66901L23.1578 7.58693L23.0757 7.50485C22.9821 7.25861 22.8294 7.30704 22.6653 7.42277L22.5011 7.50485C22.4461 7.55903 22.3911 7.61402 22.337 7.66901L22.1728 7.90622L20.5386 7.58447C20.3465 7.43508 20.175 7.23399 19.9583 7.14534C18.9421 6.73002 17.9104 6.35409 16.8934 5.94041C16.7457 5.88049 16.6472 5.69417 16.5273 5.56941C17.3843 5.28459 18.274 5.24109 19.1654 5.20661C19.4043 5.1984 19.6439 5.20661 19.8828 5.21154C20.0199 5.34533 20.134 5.52755 20.2981 5.60306C20.7381 5.8058 21.201 5.96257 21.6524 6.13904C22.2943 6.39021 22.9312 6.65204 23.5772 6.89336C24.334 7.17571 25.1047 7.42195 25.8574 7.71416C26.9523 8.14344 28.03 8.61704 29.1283 9.03811C29.4911 9.18011 29.8892 9.22115 30.27 9.30733Z" fill="#E89648"/>
<path d="M16.5391 0.911133C16.6294 1.00799 16.7033 1.14999 16.8141 1.19431C18.7802 1.97571 20.7501 2.75 22.7239 3.51717C24.0757 4.04495 25.4276 4.57518 26.7852 5.08818C26.9494 5.15139 27.1587 5.11035 27.3474 5.11773C28.2364 5.80228 28.8085 6.7421 29.4044 7.66221C29.2841 7.66014 29.1646 7.64389 29.0481 7.61379C28.2323 7.29778 27.4262 6.95715 26.6054 6.65345C26.113 6.47369 25.6073 6.35057 25.1083 6.20283C23.8492 5.2113 22.5154 4.33387 20.9592 3.90459C19.9422 3.62552 18.8842 3.49419 17.8401 3.30294C17.7104 3.19214 17.5988 3.037 17.4486 2.97462C16.4686 2.58474 15.4737 2.23016 14.4978 1.82961C14.245 1.72619 14.0431 1.50129 13.8174 1.33056L16.5391 0.911133Z" fill="#E89648"/>
<path d="M3.57688 12.5048C3.14022 11.9187 2.63952 11.3975 1.94759 11.125C1.65046 11.0085 1.31721 10.9715 0.997096 10.9231C0.451264 10.841 0.0548171 10.5849 -0.111805 10.0366C-0.186502 9.80042 -0.185343 9.54673 -0.108499 9.31119C-0.0316546 9.07565 0.117014 8.87009 0.31665 8.72336C0.528807 8.57999 0.775908 8.49688 1.03158 8.48287C2.95308 8.40818 5.35554 10.0875 5.98181 11.9187C5.85459 11.9532 5.72737 11.9918 5.59851 12.023L3.57688 12.5048Z" fill="#4797CB"/>
<path d="M20.7031 13.3524C22.0895 13.3466 23.4758 13.3163 24.8605 13.3524C25.1437 13.3598 25.4195 13.6241 25.6977 13.7702C24.8342 14.0303 23.974 14.3012 23.1064 14.5483C22.0394 14.852 20.9674 15.1286 19.9053 15.438C19.7699 15.4774 19.6722 15.644 19.5573 15.7516H13.5811C13.6738 15.658 13.7518 15.5144 13.8626 15.4807C14.3797 15.3223 14.9075 15.2008 15.4287 15.0563C16.6131 14.728 17.7975 14.3997 18.9786 14.0648C19.4851 13.9195 19.9874 13.757 20.4856 13.583C20.5751 13.5543 20.6325 13.4328 20.7031 13.3524Z" fill="#4797CB"/>
<path d="M18.3301 18.3168C19.0089 18.3168 19.6877 18.2955 20.3657 18.3094C21.0437 18.3234 21.4984 18.8454 21.4894 19.5349C21.3547 19.5311 21.2199 19.5408 21.0872 19.5636C20.1022 19.8295 19.1192 20.1031 18.138 20.3844C17.7884 20.4837 17.4461 20.6085 17.0997 20.7209C15.7257 20.7308 14.3511 20.7398 12.976 20.748C12.3768 20.748 11.7777 20.7587 11.1785 20.748C10.9503 20.729 10.7238 20.6942 10.5005 20.6438C11.048 20.5051 11.5971 20.3762 12.1421 20.2268C14.0737 19.6982 16.0031 19.1636 17.9304 18.623C18.0765 18.5729 18.198 18.4186 18.3301 18.3168Z" fill="#4797CB"/>
<path d="M14.2367 26.0854C12.6386 26.0748 11.0306 26.2496 9.45471 25.8392C9.15594 25.762 8.87113 25.6323 8.58057 25.5273C8.62407 25.4772 8.66264 25.396 8.7127 25.3812C9.48015 25.1735 10.2517 24.979 11.02 24.7721C12.0632 24.4914 13.1056 24.2083 14.1448 23.9103C14.2449 23.8816 14.3155 23.7461 14.4 23.6641H18.0805L18.0854 23.8766C17.6832 23.8356 17.4288 24.0301 17.2934 24.3896C16.7459 24.3388 16.695 24.3741 16.6113 24.8583H16.5292C16.3404 24.7812 16.1286 24.6482 16.1188 25.0225L15.8725 25.2687L15.1338 25.3508C14.8564 25.263 14.5872 25.208 14.3951 25.515L14.2367 26.0854Z" fill="#4797CB"/>
<path d="M20.7032 13.3527C20.631 13.4347 20.5736 13.5546 20.4849 13.585C19.9867 13.759 19.4843 13.9215 18.9779 14.0668C17.7968 14.4041 16.6124 14.7316 15.428 15.0583C14.9067 15.2027 14.379 15.3242 13.8619 15.4826C13.7511 15.5163 13.6731 15.6599 13.5803 15.7535L11.0416 15.7634C10.9869 15.4673 10.9322 15.1707 10.8774 14.8736H10.9595C11.0178 14.9797 11.0871 15.0793 11.1664 15.1707C11.1926 15.1962 11.2993 15.1395 11.3691 15.1198L11.5981 14.6528L11.9133 15.1067C12.0241 14.9811 12.107 14.8867 12.1891 14.7923C12.3319 14.8564 12.5002 14.9984 12.611 14.9623C12.7218 14.9261 12.7825 14.716 12.826 14.5683C12.8482 14.4936 12.785 14.3926 12.7595 14.304C12.7595 14.2457 12.7636 14.1874 12.7653 14.1291L12.9508 14.2416C12.9138 14.0257 12.8769 13.8107 12.8268 13.516L13.3267 13.7163C13.2651 13.5603 13.2225 13.4544 13.1806 13.3477L13.3341 13.3379L13.8676 13.7409L13.9037 13.6588L13.7511 13.3412L20.7032 13.3527ZM13.4613 13.8698L13.3965 13.841C13.3874 13.8624 13.3661 13.8886 13.3727 13.9051C13.3792 13.9215 13.4121 13.9256 13.4334 13.9346L13.4613 13.8698Z" fill="#4797CB"/>
<path d="M25.1039 6.20459C25.603 6.35233 26.1127 6.47545 26.601 6.65521C27.4218 6.95726 28.2279 7.29954 29.0437 7.61554C29.1602 7.64564 29.2797 7.6619 29.4 7.66397L30.27 9.30557C29.8892 9.22349 29.4911 9.17835 29.1307 9.03881C28.0325 8.61692 26.9548 8.14414 25.8599 7.71486C25.1072 7.42019 24.3365 7.17395 23.5797 6.89406C22.9337 6.65275 22.2968 6.39091 21.6549 6.13975C21.2026 5.96327 20.7405 5.8065 20.3006 5.60376C20.1364 5.52825 20.0223 5.34603 19.8853 5.21224C21.7731 5.05957 23.4918 5.62757 25.241 6.52552L25.1039 6.20459Z" fill="#E89648"/>
<path d="M18.3302 18.317C18.1981 18.4188 18.0799 18.5731 17.9305 18.615C16.0043 19.1589 14.0749 19.6935 12.1422 20.2188C11.5972 20.3682 11.0481 20.4971 10.5006 20.6358C9.91045 20.4027 9.57803 19.8807 9.67981 19.343C9.80047 18.693 10.2396 18.3047 10.8962 18.3047C13.3734 18.3042 15.8514 18.3083 18.3302 18.317Z" fill="#4797CB"/>
<path d="M16.5299 24.8593H16.612L16.7762 25.0235L16.9403 25.1876C17.0938 25.2303 17.3606 25.3386 17.3811 25.3042C17.487 25.1211 17.5305 24.902 17.5961 24.696C17.7242 24.8601 17.8522 25.0243 17.9811 25.1884L18.0689 25.1244L18.0049 24.9422V24.8601L18.3332 24.696L18.7436 24.4497L18.9899 24.5318C19.8854 24.2856 20.78 24.0327 21.6764 23.7931C22.3913 23.5994 23.1086 23.4155 23.8244 23.2275C22.7278 24.8141 21.2627 25.9025 19.3248 26.0626C17.6667 26.2005 15.989 26.093 14.3179 26.0938C14.345 25.9017 14.3729 25.7096 14.4 25.5192L15.1387 25.3551L15.8774 25.273C15.9792 25.3936 16.0596 25.5512 16.1885 25.6235C16.2976 25.6842 16.502 25.7055 16.5915 25.6366C16.681 25.5676 16.6736 25.3838 16.7138 25.2155L16.2673 25.4971C16.2197 25.3674 16.1704 25.2385 16.1253 25.108C16.1211 25.0808 16.1211 25.0531 16.1253 25.0259L16.5299 24.8593Z" fill="#4797CB"/>
<path d="M14.4002 23.6671C14.3181 23.7492 14.2451 23.8846 14.1449 23.9134C13.1058 24.2113 12.0634 24.4945 11.0201 24.7752C10.2519 24.982 9.48029 25.1766 8.71285 25.3842C8.65949 25.399 8.62421 25.4803 8.58071 25.5303C7.57277 25.1593 6.69287 24.6192 6.10107 23.6868C6.15196 23.645 6.1971 23.5793 6.25373 23.5653C6.87179 23.4135 7.49479 23.2854 8.1071 23.1147C8.26059 23.0729 8.37879 22.9038 8.5134 22.793C9.49836 23.4496 10.5982 23.6548 11.7588 23.6474C12.6396 23.6417 13.5203 23.6589 14.4002 23.6671Z" fill="#4797CB"/>
<path d="M25.3745 9.55078C26.0656 9.77404 26.7699 9.97185 27.4462 10.2263C28.473 10.6096 29.4834 11.0389 30.507 11.4329C30.6769 11.4985 30.8772 11.4846 31.0643 11.5076C31.1902 12.3016 31.3163 13.095 31.4427 13.8879C30.9502 13.741 30.4577 13.6105 29.9759 13.443C29.2626 13.1968 28.5592 12.9218 27.8517 12.6592C27.2542 11.4427 26.3833 10.4413 25.3745 9.55078Z" fill="#E89648"/>
<path d="M24.34 27.792C24.9146 29.2629 23.8697 30.7387 22.4522 30.9045C21.1274 31.0596 20.0308 30.2191 19.8354 28.9526C20.2311 28.8705 20.6316 28.8081 21.0215 28.7064C22.1304 28.4092 23.2344 28.0973 24.34 27.792Z" fill="#4797CB"/>
<path d="M16.5306 5.56836C16.6513 5.69476 16.749 5.87944 16.8967 5.93936C17.9137 6.34976 18.9487 6.72897 19.9616 7.1443C20.1783 7.23294 20.3498 7.43404 20.5419 7.58342C19.5233 7.5432 18.5096 7.57111 17.5181 7.82966C17.074 7.94704 16.6398 8.09889 16.2048 8.23514C16.135 8.16209 16.0792 8.05538 15.9938 8.02173C15.3126 7.75907 14.6297 7.50381 13.9451 7.26659C13.7268 7.19026 13.6357 7.07124 13.6636 6.84963C14.5427 6.24962 15.5169 5.86467 16.5306 5.56836Z" fill="#E89648"/>
<path d="M13.6634 6.84668C13.6355 7.0683 13.7266 7.18731 13.9449 7.26365C14.6319 7.50332 15.3124 7.76187 15.9904 8.02535C16.0725 8.059 16.1315 8.16571 16.2013 8.23876C15.1971 8.71787 14.2591 9.32482 13.4106 10.0445C12.9181 10.4549 12.1794 10.3548 11.7862 9.89841C11.3414 9.38131 11.3356 8.65736 11.8494 8.21577C12.4256 7.72494 13.0577 7.30058 13.6634 6.84668Z" fill="#E89648"/>
<path d="M24.3402 27.7917C23.2346 28.0971 22.1306 28.409 21.0225 28.7045C20.6326 28.8079 20.2321 28.8686 19.8365 28.9507C19.6821 27.9805 20.017 27.1884 20.805 26.6393C21.5798 26.0992 22.4466 26.0525 23.2732 26.5261C23.7599 26.8084 24.1818 27.2049 24.3402 27.7917Z" fill="#4797CB"/>
<path d="M19.5581 15.7539C19.673 15.6463 19.7707 15.4797 19.9061 15.4403C20.9691 15.1309 22.0402 14.8543 23.1072 14.5506C23.974 14.3043 24.8309 14.0327 25.6985 13.7725C25.8044 14.0089 25.971 14.237 26.0014 14.4825C26.0465 14.8518 25.9948 15.2318 25.985 15.6078C25.8266 15.6349 25.6681 15.657 25.5105 15.6898C24.8408 15.8253 24.171 15.964 23.5012 16.1002C23.5382 15.8204 23.3921 15.7662 23.1425 15.767C21.9483 15.7719 20.7532 15.7596 19.5581 15.7539Z" fill="#4797CB"/>
<path d="M28.413 23.881C27.7563 24.5656 27.1301 25.2871 26.4275 25.9224C25.9637 26.3426 25.2135 26.1957 24.808 25.7229C24.6197 25.4949 24.5202 25.2065 24.5277 24.9108C24.5353 24.6152 24.6494 24.3323 24.8491 24.1141C25.2513 23.6898 25.6855 23.2933 26.1065 22.8887C26.2526 23.0003 26.384 23.1538 26.5498 23.217C27.1645 23.455 27.7908 23.6627 28.413 23.881Z" fill="#E89648"/>
<path d="M23.822 23.2227C23.1063 23.4107 22.3889 23.5946 21.674 23.7883C20.7777 24.0345 19.883 24.2807 18.9875 24.527C18.967 24.2955 18.9473 24.0649 18.9219 23.7809L19.3249 24.0066L19.2354 23.6454L20.1276 23.3631C20.2097 23.501 20.286 23.739 20.3862 23.7513C20.5216 23.7686 20.7629 23.6405 20.8056 23.5207C20.8565 23.3746 20.749 23.1718 20.7096 22.9937L20.8425 22.9601L21.033 22.7286L22.0893 21.4974L22.343 21.5795L22.6713 21.9078C22.8075 21.9997 22.9446 22.2287 23.0817 21.9078L23.2458 21.7437C23.2713 21.7437 23.2967 21.7437 23.3222 21.7437L23.5684 21.3333L25.0163 20.9229L23.822 23.2227Z" fill="#4797CB"/>
<path d="M8.51365 22.7926C8.37904 22.9034 8.26085 23.0725 8.10736 23.1143C7.49504 23.2851 6.87205 23.4131 6.25398 23.565C6.19735 23.5789 6.15222 23.647 6.10133 23.6864C5.40447 22.8656 5.10404 21.8963 5.00391 20.8473C5.21157 20.8095 5.42088 20.7767 5.62772 20.7332C6.20228 20.6101 6.77684 20.482 7.3514 20.3564C7.50653 21.0303 7.59764 21.7272 8.06385 22.2861C8.20667 22.4602 8.36262 22.6243 8.51365 22.7926Z" fill="#4797CB"/>
<path d="M8.61335 27.5518C8.75274 27.7997 8.83601 28.0752 8.85729 28.3589C8.87856 28.6425 8.83732 28.9274 8.73647 29.1934L8.42374 29.3575L8.01334 29.4396C7.95506 29.4273 7.88941 29.392 7.83852 29.4068C6.85766 29.6875 5.87844 29.9739 4.89923 30.2588C4.37802 29.8032 4.15558 29.2221 4.1761 28.5351C4.35093 28.581 4.54629 28.6992 4.69732 28.6607C6.0106 28.3126 7.30992 27.9277 8.61335 27.5518Z" fill="#4797CB"/>
<path d="M27.8516 12.6621C28.5591 12.9248 29.2625 13.1989 29.9758 13.446C30.4576 13.6101 30.9534 13.7439 31.4426 13.8908C31.4639 14.0279 31.4844 14.165 31.5058 14.3012L31.3876 15.122C30.8023 15.1278 30.6817 15.2698 30.7744 15.8558C30.5709 15.7138 30.3492 15.4397 30.1178 15.6982C29.9979 15.832 30.0587 16.1283 30.0357 16.3508V16.4255L29.8715 16.4206C29.8715 16.3968 29.8715 16.3729 29.8715 16.35C29.8174 15.9543 29.5802 15.9814 29.3019 16.1037L28.7273 15.9396C28.6086 14.808 28.313 13.7021 27.8516 12.6621Z" fill="#E89648"/>
<path d="M14.6482 3.58053L11.7861 4.65332C11.6688 4.56458 11.5442 4.48604 11.4135 4.41857C10.8036 4.16248 10.1823 3.92609 9.57816 3.66179C9.47064 3.615 9.40907 3.46398 9.32617 3.36138L11.6162 2.0957C11.6983 2.19256 11.7607 2.32963 11.8625 2.37888C12.2179 2.54304 12.5897 2.67601 12.95 2.83114C13.5205 3.08066 14.0835 3.33101 14.6482 3.58053Z" fill="#E89648"/>
<path d="M30.0391 16.4242V16.3495C30.2722 16.4185 30.5062 16.5326 30.7368 16.5268C30.809 16.5268 30.8731 16.1985 30.9404 16.0196L31.4255 16.5121C31.2312 17.4363 31.0367 18.3608 30.8419 19.2855C30.8238 19.3676 30.7984 19.4563 30.7762 19.5408L28.5034 18.72C28.5795 17.7898 28.6555 16.8623 28.7316 15.9375L29.3062 16.1017C29.1633 16.3668 29.1642 16.636 29.3825 16.8404C29.4818 16.934 29.7625 17.0095 29.8011 16.9619C29.9209 16.8182 29.9653 16.6089 30.0391 16.4242Z" fill="#E89648"/>
<path d="M28.4129 23.8805C27.7907 23.6622 27.1644 23.4545 26.5497 23.2173C26.3855 23.1533 26.2525 22.9998 26.1064 22.889C26.6104 22.1776 27.1147 21.4662 27.6192 20.7549C27.7431 20.8033 27.8654 20.8542 27.9918 20.9002L29.9084 21.5978L28.4129 23.8805Z" fill="#E89648"/>
<path d="M8.61382 27.5527C7.31039 27.9286 6.00861 28.3136 4.69943 28.669C4.5484 28.71 4.35304 28.5869 4.17821 28.5434C4.13389 27.0537 5.62036 25.9021 7.03214 26.3371C7.70848 26.5456 8.3093 26.8575 8.61382 27.5527Z" fill="#4797CB"/>
<path d="M14.6482 3.58129C14.0835 3.33505 13.5204 3.07814 12.9525 2.83436C12.5921 2.67923 12.2203 2.54873 11.8649 2.3821C11.7607 2.33286 11.7007 2.19578 11.6187 2.09893L13.82 1.33887C14.0457 1.50877 14.2477 1.73449 14.5005 1.83791C15.4764 2.23846 16.4704 2.59305 17.4512 2.98703C17.6014 3.04695 17.7131 3.20208 17.8428 3.31535L14.6482 3.58129Z" fill="#E89648"/>
<path d="M25.0182 20.9296L23.5703 21.34L23.4061 21.1758L23.2419 20.9296L23.0778 20.8475L22.5073 20.6833C22.7202 20.0267 22.9325 19.37 23.1443 18.7134L25.7519 18.0625L25.0182 20.9296Z" fill="#4797CB"/>
<path d="M25.7537 18.0651L23.146 18.7159C23.2642 17.8443 23.3829 16.9726 23.5022 16.1009C24.172 15.963 24.8418 15.8243 25.5115 15.6905C25.6691 15.6585 25.8276 15.6363 25.986 15.6084C25.9116 16.427 25.8341 17.2459 25.7537 18.0651Z" fill="#4797CB"/>
<path d="M7.34964 20.3562C6.77508 20.4818 6.20052 20.6099 5.62596 20.733C5.41912 20.7765 5.20981 20.8093 5.00215 20.8471C4.89271 20.0558 4.78327 19.2646 4.67383 18.4733C4.95044 18.429 5.2328 18.4052 5.50284 18.3354C6.00846 18.2041 6.50749 18.0465 7.00982 17.9004C7.12364 18.719 7.23692 19.5376 7.34964 20.3562Z" fill="#4797CB"/>
<path d="M9.84914 5.93289L8.26581 7.50719L5.89453 6.66012L7.52627 4.8125C7.68387 5.19828 8.08032 5.15642 8.37827 5.28938C8.86829 5.50608 9.35912 5.71866 9.84914 5.93289Z" fill="#E89648"/>
<path d="M29.9083 21.5957L27.9918 20.898C27.867 20.852 27.7455 20.8011 27.6191 20.7527C27.9135 20.0747 28.2079 19.3967 28.5023 18.7188L30.7751 19.5395L29.9083 21.5957Z" fill="#E89648"/>
<path d="M9.84972 5.93387C9.35724 5.71964 8.86887 5.50706 8.37886 5.29036C8.08091 5.15739 7.68445 5.19925 7.52686 4.81348L9.32604 3.3623C9.40812 3.4649 9.47051 3.61593 9.57803 3.66272C10.1846 3.92784 10.8035 4.16341 11.4134 4.4195C11.544 4.48697 11.6687 4.56551 11.786 4.65424L9.84972 5.93387Z" fill="#E89648"/>
<path d="M3.57666 12.5038L5.59992 12.0261C5.72879 11.9949 5.85601 11.9563 5.98323 11.9219C6.36162 12.6113 6.44699 13.3689 6.50363 14.1331C6.3723 14.1602 6.24097 14.1824 6.11128 14.2152C5.44862 14.3794 4.78624 14.5435 4.12413 14.7077C4.04779 13.9451 3.94848 13.1908 3.57666 12.5038Z" fill="#4797CB"/>
<path d="M4.12305 14.7074C4.78571 14.5432 5.44809 14.3791 6.1102 14.2149C6.23989 14.1837 6.37122 14.1615 6.50255 14.1328L6.75864 16.1848C6.47383 16.2611 6.19064 16.344 5.90418 16.413C5.4117 16.5328 4.91348 16.6436 4.4169 16.7586C4.3195 16.0735 4.22154 15.3897 4.12305 14.7074Z" fill="#4797CB"/>
<path d="M10.9613 14.8727H10.8792L10.7068 14.6584C10.4984 14.8587 10.9958 15.2182 10.5279 15.2798L10.7938 15.7517H10.3908C10.2685 15.2158 10.0625 15.0779 9.57824 15.1993C9.08576 14.3629 9.59056 13.3772 10.5501 13.3386C11.1476 13.3148 11.7468 13.3427 12.3452 13.3476L12.7662 14.1298C12.7662 14.1881 12.7662 14.2464 12.7605 14.3047L12.3501 13.7408L12.1359 13.8434L12.4338 14.3096L12.0316 14.4631C11.9889 14.335 11.9465 14.2073 11.9044 14.0798C11.7632 14.2956 11.7287 14.4639 12.0267 14.468L12.1909 14.7963C12.1088 14.8907 12.0267 14.9851 11.9151 15.1107L11.5999 14.6568L11.3709 15.1238L11.196 14.349L11.091 14.3186C11.0475 14.5 11.0048 14.6863 10.9613 14.8727ZM10.2037 14.9859C10.193 15.0089 10.17 15.0368 10.1766 15.0532C10.1839 15.0633 10.1938 15.0712 10.2052 15.0761C10.2166 15.081 10.2291 15.0828 10.2415 15.0811C10.2513 15.0741 10.2591 15.0645 10.264 15.0533C10.2689 15.0422 10.2708 15.03 10.2693 15.0179C10.262 15.0007 10.2267 14.9958 10.2037 14.9826V14.9859Z" fill="#4797CB"/>
<path d="M5.89492 6.66016L8.2662 7.50722C8.00847 7.85606 7.76798 8.21968 7.48973 8.55046C7.29435 8.78214 7.0183 8.93101 6.71738 8.96697C6.41646 9.00293 6.11311 8.92329 5.86865 8.74417C5.6237 8.56694 5.45336 8.30499 5.39071 8.00921C5.32807 7.71343 5.37758 7.40492 5.52964 7.14361C5.64113 6.97495 5.76314 6.81348 5.89492 6.66016Z" fill="#E89648"/>
<path d="M4.41699 16.7544C4.91358 16.6395 5.41015 16.5287 5.90427 16.4088C6.19073 16.3399 6.47392 16.257 6.75874 16.1807C6.84246 16.7536 6.92644 17.3268 7.01071 17.9002C6.50838 18.0463 6.00934 18.2039 5.50373 18.3353C5.23369 18.405 4.95132 18.4288 4.67471 18.4732C4.5888 17.9002 4.5029 17.3273 4.41699 16.7544Z" fill="#4797CB"/>
<path d="M4.90137 30.2628C5.88058 29.978 6.8598 29.6882 7.84066 29.4108C7.89155 29.396 7.9572 29.4313 8.01548 29.4436C7.94254 29.5753 7.91215 29.7262 7.92847 29.8759C7.94478 30.0255 8.007 30.1664 8.1066 30.2792C7.22506 31.1624 5.85103 31.1517 4.90137 30.2628Z" fill="#4797CB"/>
<path d="M17.1001 20.7171C17.4465 20.6047 17.7887 20.4799 18.1384 20.3806C19.1201 20.1015 20.1031 19.8279 21.0875 19.5598C21.2203 19.5369 21.3551 19.5273 21.4897 19.5311C21.4897 20.0941 21.1409 20.5792 20.5909 20.6687C20.1481 20.7278 19.7013 20.7519 19.2547 20.7409C18.5365 20.7483 17.8183 20.7278 17.1001 20.7171Z" fill="#4797CB"/>
<path d="M19.2353 23.6494L19.3247 24.0106L18.9217 23.7848C18.9472 24.0688 18.9669 24.2995 18.9874 24.531L18.7412 24.4489C18.623 24.1435 18.4383 23.9137 18.0845 23.8743L18.0796 23.6617L19.2353 23.6494Z" fill="#4797CB"/>
<path d="M23.3297 8.26617C23.3317 8.27977 23.3317 8.2936 23.3297 8.30721L22.5819 8.01993C22.5877 7.93292 22.5934 7.8451 22.5984 7.75809L22.9628 7.72116L22.9193 7.57916L22.586 7.74332L22.3447 7.66616C22.3989 7.61117 22.4539 7.55617 22.5089 7.502L22.673 7.41992L23.0834 7.502L23.1655 7.58408L23.2476 7.66616C23.2706 7.86808 23.2977 8.06753 23.3297 8.26617Z" fill="#E89648"/>
<path d="M8.10625 30.28C8.00666 30.1671 7.94444 30.0262 7.92812 29.8766C7.91181 29.727 7.9422 29.576 8.01513 29.4444L8.42553 29.3623L8.66029 29.5265L8.10625 30.28Z" fill="#4797CB"/>
<path d="M22.2505 21.2531L22.3867 21.002L23.0795 20.8477L23.2436 20.9297C23.2642 21.2449 23.0286 21.3639 22.8103 21.4969L22.5895 21.0947L22.9555 21.0676L22.9186 20.9207L22.5903 21.0931C22.5642 21.2223 22.53 21.3498 22.4877 21.4747C22.4688 21.5224 22.3941 21.5486 22.3457 21.5847L22.2505 21.2531Z" fill="#4797CB"/>
<path d="M20.7094 22.999C20.7488 23.1771 20.8563 23.3799 20.8054 23.526C20.7627 23.6458 20.5214 23.7722 20.386 23.7566C20.2858 23.7443 20.2128 23.5063 20.1274 23.3684L20.7094 22.999Z" fill="#4797CB"/>
<path d="M12.7668 14.1279L12.3457 13.3457H13.1821C13.224 13.4524 13.2642 13.5583 13.3282 13.7142L12.8283 13.514C12.8784 13.8086 12.9153 14.0237 12.9523 14.2396L12.7668 14.1279Z" fill="#4797CB"/>
<path d="M9.57861 15.1973C10.0662 15.0758 10.2689 15.2137 10.3912 15.7497C10.0325 15.6898 9.72964 15.5568 9.57861 15.1973Z" fill="#4797CB"/>
<path d="M10.7943 15.7525L10.5283 15.2805C10.9962 15.219 10.4988 14.8595 10.7072 14.6592L10.8796 14.8734C10.9343 15.17 10.9891 15.4666 11.0438 15.7632L10.7943 15.7525Z" fill="#4797CB"/>
<path d="M13.7524 13.3412L13.9051 13.6588L13.869 13.7409L13.3354 13.3379L13.7524 13.3412Z" fill="#4797CB"/>
<path d="M23.0834 20.8489L22.3906 21.0032L22.5129 20.6855L23.0834 20.8489Z" fill="#4797CB"/>
<path d="M22.5906 7.75908C22.5857 7.84608 22.5799 7.93391 22.5742 8.02091L22.1802 7.90518L22.3443 7.66797L22.5856 7.74512L22.5906 7.75908Z" fill="#E89648"/>
<path d="M8.65859 29.5246L8.42383 29.3604L8.73656 29.1963C8.71029 29.3063 8.68403 29.4154 8.65859 29.5246Z" fill="#4797CB"/>
<path d="M22.2507 21.2549L22.3435 21.5832L22.0898 21.5011C22.144 21.419 22.1974 21.337 22.2507 21.2549Z" fill="#4797CB"/>
<path d="M14.4 25.5137C14.3729 25.7057 14.345 25.8978 14.3179 26.0882L14.2358 26.0833C14.2917 25.894 14.3464 25.7041 14.4 25.5137Z" fill="#4797CB"/>
<path d="M23.3296 8.26551C23.3017 8.06688 23.2746 7.86742 23.2476 7.66797C23.543 7.82967 23.4027 8.0521 23.3296 8.26551Z" fill="#E89648"/>
<path d="M23.0833 7.50549L22.6729 7.42341C22.837 7.30768 22.9864 7.25843 23.0833 7.50549Z" fill="#E89648"/>
<path d="M22.5089 7.50488C22.4539 7.55906 22.3989 7.61405 22.3447 7.66904C22.3956 7.61405 22.4506 7.55906 22.5089 7.50488Z" fill="#E89648"/>
<path d="M16.7755 25.0233L16.6113 24.8592C16.6934 24.3749 16.7459 24.3396 17.2934 24.3905C17.433 24.031 17.6833 23.8364 18.0855 23.8775V24.1237L17.6373 24.2247L17.8959 24.6351L18.0297 24.5858L18.0863 24.1278C18.4384 24.2033 18.4015 24.4438 18.3326 24.7024L18.0042 24.8665V24.9486L18.0682 25.1308L17.9804 25.1949C17.8516 25.0307 17.7235 24.8665 17.5955 24.7024L17.2007 24.9306C17.2097 24.782 17.2171 24.6737 17.2245 24.544C16.8453 24.5284 16.7583 24.7303 16.7755 25.0233Z" fill="#4797CB"/>
<path d="M16.1195 25.0215C16.1153 25.0487 16.1153 25.0764 16.1195 25.1036C16.1646 25.2341 16.2139 25.3629 16.2615 25.4926L16.708 25.2111C16.6653 25.3794 16.6719 25.5706 16.5857 25.6322C16.4995 25.6937 16.2918 25.6798 16.1827 25.619C16.0538 25.5468 15.9734 25.3892 15.8716 25.2685L16.1195 25.0215Z" fill="#4797CB"/>
<path d="M15.1372 25.3502L14.3984 25.5143C14.5905 25.2074 14.8597 25.2623 15.1372 25.3502Z" fill="#4797CB"/>
<path d="M16.5291 24.8599L16.1187 25.024C16.1285 24.6498 16.3403 24.7827 16.5291 24.8599Z" fill="#4797CB"/>
<path d="M12.0292 14.4625L12.4314 14.309L12.1334 13.8428L12.3476 13.7402L12.758 14.3041C12.7835 14.3928 12.8467 14.4937 12.8245 14.5684C12.781 14.7145 12.7154 14.9279 12.6095 14.9624C12.5036 14.9969 12.3304 14.8565 12.1876 14.7925L12.0234 14.4642L12.0292 14.4625Z" fill="#4797CB"/>
<path d="M10.9614 14.8734C11.0049 14.6871 11.0476 14.5008 11.0911 14.3145L11.1962 14.3448L11.371 15.1197C11.3012 15.1394 11.1945 15.196 11.1683 15.1705C11.089 15.0791 11.0197 14.9795 10.9614 14.8734Z" fill="#4797CB"/>
<path d="M13.4627 13.8695L13.4348 13.9344C13.4134 13.9254 13.3798 13.9204 13.374 13.9048C13.3683 13.8892 13.3888 13.8622 13.3979 13.8408L13.4627 13.8695Z" fill="#4797CB"/>
<path d="M16.7755 25.0236C16.7583 24.7306 16.8445 24.5311 17.2228 24.5393C17.2155 24.669 17.2081 24.7773 17.199 24.9259L17.5938 24.6977C17.5282 24.9037 17.4847 25.1229 17.3788 25.3059C17.3583 25.3404 17.0915 25.2321 16.938 25.1894L17.2163 25.0252L16.7755 25.0236Z" fill="#4797CB"/>
<path d="M18.3288 24.6948C18.401 24.4396 18.4379 24.2023 18.0825 24.1203V23.874C18.4346 23.9126 18.6193 24.1424 18.7392 24.4486L18.3288 24.6948Z" fill="#4797CB"/>
<path d="M16.7759 25.0225H17.2167L16.9384 25.1866L16.7759 25.0225Z" fill="#4797CB"/>
<path d="M18.0024 24.9415C18.0024 24.9144 18.0024 24.8865 18.0024 24.8594C18.0033 24.8865 18.0024 24.9135 18.0024 24.9415Z" fill="#4797CB"/>
<path d="M22.3447 21.5844C22.3932 21.5483 22.4678 21.522 22.4867 21.4744C22.529 21.3495 22.5633 21.222 22.5893 21.0927L22.8101 21.4949C23.0284 21.3619 23.264 21.2429 23.2435 20.9277L23.4077 21.174C23.3789 21.3644 23.3494 21.554 23.3206 21.7444C23.2952 21.7444 23.2698 21.7444 23.2443 21.7444C23.2369 21.6624 23.2304 21.5737 23.2246 21.4982L22.8093 21.7354L22.8298 21.7896L23.2402 21.7453L23.0761 21.9094H22.6657L22.3447 21.5844Z" fill="#4797CB"/>
<path d="M23.3198 21.7482C23.3486 21.5578 23.3781 21.3682 23.4068 21.1777L23.571 21.3419L23.3198 21.7482Z" fill="#4797CB"/>
<path d="M22.6729 21.9121H23.0833C22.9437 22.233 22.8066 22.004 22.6729 21.9121Z" fill="#4797CB"/>
<path d="M30.0387 16.4239C29.9648 16.6086 29.9205 16.8179 29.7998 16.9648C29.7612 17.0124 29.4805 16.9369 29.3812 16.8434C29.1629 16.6365 29.1621 16.3673 29.3049 16.1046C29.5831 15.9823 29.8203 15.9553 29.8745 16.3509L29.8425 16.3706L29.8753 16.4215L30.0387 16.4239Z" fill="#E89648"/>
<path d="M30.8553 15.9391L30.9374 16.0212C30.8701 16.1993 30.806 16.5268 30.7338 16.5284C30.5032 16.5342 30.2692 16.4201 30.0361 16.3512C30.0575 16.1287 29.9967 15.8324 30.1182 15.6986C30.3513 15.4401 30.5729 15.7142 30.7749 15.8562L30.8553 15.9391ZM30.2118 15.8193L30.0788 16.0056L30.4465 16.3282C30.4974 16.2313 30.6107 16.0663 30.5885 16.0475C30.4716 15.9579 30.3453 15.8814 30.2118 15.8193Z" fill="#E89648"/>
<path d="M29.8756 16.4192L29.8428 16.3683L29.8748 16.3486C29.8748 16.3716 29.8748 16.3954 29.8756 16.4192Z" fill="#E89648"/>
<path d="M12.0239 14.4654C11.7259 14.4613 11.7604 14.293 11.9016 14.0771C11.9437 14.2046 11.9861 14.3324 12.0288 14.4605L12.0239 14.4654Z" fill="#4797CB"/>
<path d="M10.2034 14.9824C10.2264 14.9923 10.2617 14.9972 10.2691 15.0144C10.2705 15.0265 10.2686 15.0387 10.2637 15.0498C10.2588 15.0609 10.251 15.0705 10.2412 15.0776C10.2288 15.0793 10.2163 15.0775 10.2049 15.0726C10.1935 15.0677 10.1836 15.0598 10.1763 15.0497C10.1697 15.0366 10.1968 15.0087 10.2034 14.9824Z" fill="#4797CB"/>
<path d="M22.583 7.74424L22.9163 7.58008L22.9581 7.72208L22.5912 7.75819L22.583 7.74424Z" fill="#E89648"/>
<path d="M22.5912 21.0933L22.9195 20.9209L22.9564 21.0678L22.5903 21.0949L22.5912 21.0933Z" fill="#4797CB"/>
<path d="M18.0857 24.1232L18.0291 24.5813L17.8953 24.6305L17.6367 24.2201L18.0849 24.1191L18.0857 24.1232Z" fill="#4797CB"/>
<path d="M23.2424 21.749L22.832 21.7933L22.8115 21.7392L23.2269 21.502C23.2326 21.5783 23.2392 21.6661 23.2466 21.7482L23.2424 21.749Z" fill="#4797CB"/>
<path d="M30.2121 15.8184C30.3456 15.8805 30.4719 15.957 30.5888 16.0465C30.6093 16.0654 30.4977 16.2304 30.4468 16.3273L30.0791 16.0047L30.2121 15.8184Z" fill="#E89648"/>
</g>
</g>
<defs>
<clipPath id="clip0_2063_958">
<rect width="32" height="32" fill="white"/>
</clipPath>
<clipPath id="clip1_2063_958">
<rect width="31.7576" height="30.1439" fill="white" transform="translate(-0.164062 0.792969)"/>
</clipPath>
</defs>
</svg>
